<?xml version="1.0" encoding="utf-8"?>
<!-- Generator: Adobe Illustrator 17.1.0, SVG Export Plug-In . SVG Version: 6.00 Build 0)  -->
<!DOCTYPE svg PUBLIC "-//W3C//DTD SVG 1.1//EN" "http://www.w3.org/Graphics/SVG/1.1/DTD/svg11.dtd">
<svg version="1.1" id="Layer_1" xmlns="http://www.w3.org/2000/svg" xmlns:xlink="http://www.w3.org/1999/xlink" x="0px" y="0px"
	 viewBox="0 180 612 612" enable-background="new 0 180 612 612" xml:space="preserve">
<g id="outline" sodipodi:docname="bootsblogger_logo.svg" inkscape:version="0.48.1 r9760" xmlns:svg="http://www.w3.org/2000/svg" xmlns:sodipodi="http://sodipodi.sourceforge.net/DTD/sodipodi-0.dtd" xmlns:rdf="http://www.w3.org/1999/02/22-rdf-syntax-ns#" xmlns:dc="http://purl.org/dc/elements/1.1/" xmlns:cc="http://creativecommons.org/ns#" xmlns:inkscape="http://www.inkscape.org/namespaces/inkscape">
	<g id="bg_1_">
		<path fill="#FFFFFF" d="M510,186c25.5,0,49.6,10,67.8,28.2S606,256.5,606,282v408c0,25.5-10,49.6-28.2,67.8S535.5,786,510,786H102
			c-25.5,0-49.6-10-67.8-28.2S6,715.5,6,690V282c0-25.5,10-49.6,28.2-67.8S76.5,186,102,186H510 M510,180H102
			C45.9,180,0,225.9,0,282v408c0,56.1,45.9,102,102,102h408c56.1,0,102-45.9,102-102V282C612,225.9,566.1,180,510,180L510,180z"/>
	</g>
	<g id="B_2_" enable-background="new    " transform="translate(0,180)">
		<path fill="#FFFFFF" d="m 483.32742,262.81768 c -7.88887,-3.44838 -41.73045,0.38183 -51.13171,-8.29282 -6.63342,-6.25243 -7.05677,-17.56407 -9.6465,-32.65819 -4.33566,-25.27222 -6.14292,-30.99964 -10.65377,-40.95102 -16.41131,-35.46224 -55.75058,-65.82947 -91.48993,-65.82947 l -82.8361,0 c -65.17519,0 -118.42655,54.35078 -118.42655,120.6814 l 0,140.71541 c 0,66.2113 53.25136,120.43083 118.42655,120.43083 l 136.10207,0 c 65.17226,0 118.06159,-54.21953 118.43823,-120.43083 l 0.74743,-97.4615 c 0,0 0,-12.05144 -9.52972,-16.20381 m -244.26024,-49.11258 65.67737,0 c 12.5311,0 22.68271,10.33321 22.68271,22.95738 0,12.63611 -10.15161,23.08864 -22.68271,23.08864 l -65.67737,0 c -12.53111,0 -22.6827,-10.45253 -22.6827,-23.08864 0.003,-12.62417 10.15451,-22.95738 22.6827,-22.95738 m 133.47731,183.9574 -133.47731,0 c -12.53111,0 -22.6827,-10.46447 -22.6827,-22.95739 0,-12.6361 10.15159,-22.96932 22.6827,-22.96932 l 133.47731,0 c 12.40265,0 22.55132,10.33322 22.55132,22.96932 0.003,12.49292 -10.14867,22.95739 -22.55132,22.95739"/>
	</g>
</g>
</svg>
